<?xml version="1.0" encoding="UTF-8"?>
<svg id="svg16" xmlns="http://www.w3.org/2000/svg" version="1.1" xmlns:inkscape="http://www.inkscape.org/namespaces/inkscape" xmlns:sodipodi="http://sodipodi.sourceforge.net/DTD/sodipodi-0.dtd" xmlns:svg="http://www.w3.org/2000/svg" viewBox="0 0 160.15 113.61">
  <!-- Generator: Adobe Illustrator 29.5.0, SVG Export Plug-In . SVG Version: 2.1.0 Build 137)  -->
  <defs>
    <style>
      .st0 {
        fill-opacity: 0;
      }
    </style>
  </defs>
  <sodipodi:namedview id="namedview18" bordercolor="#eeeeee" borderopacity="1" inkscape:current-layer="svg16" inkscape:cx="-67.628468" inkscape:cy="131.55127" inkscape:deskcolor="#505050" inkscape:pagecheckerboard="0" inkscape:pageopacity="0" inkscape:showpageshadow="0" inkscape:window-height="1009" inkscape:window-maximized="1" inkscape:window-width="1920" inkscape:window-x="-8" inkscape:window-y="142" inkscape:zoom="1.6191406" pagecolor="#505050" showgrid="false"/>
  <path id="path4" d="M156.14,49.6c-3.19,0-5.31-1.87-5.31-5.71v-22.04c0-14.07-5.8-21.85-20.77-21.85h-6.96v14.86h2.13c5.89,0,8.7,3.25,8.7,9.05v19.49c0,8.46,2.51,11.91,8.02,13.68-5.51,1.67-8.02,5.22-8.02,13.68v14.47c0,4.03,0,7.97-1.06,12.01-1.06,3.74-2.8,7.28-5.22,10.33-1.35,1.77-2.9,3.25-4.64,4.62v1.97h6.96c14.98,0,20.77-7.77,20.77-21.85v-22.04c0-3.94,2.03-5.71,5.31-5.71h3.96v-14.86h-3.87v-.1Z"/>
  <path id="path6" d="M108.79,22.37h-21.45c-.48,0-.87-.39-.87-.89v-1.67c0-.49.39-.89.87-.89h21.55c.48,0,.87.39.87.89v1.67c0,.49-.48.89-.97.89Z"/>
  <path id="path8" d="M112.46,43.85h-15.65c-.48,0-.87-.39-.87-.89v-1.67c0-.49.39-.89.87-.89h15.65c.48,0,.87.39.87.89v1.67c0,.39-.39.89-.87.89Z"/>
  <path id="path10" d="M118.65,32.93h-31.31c-.48,0-.87-.39-.87-.89v-1.67c0-.49.39-.89.87-.89h31.21c.48,0,.87.39.87.89v1.67c0,.39-.29.89-.77.89Z"/>
  <path id="path12" d="M62.52,27.26c2.12,0,4.25.2,6.28.69v-4.03c0-5.71,2.9-9.05,8.7-9.05h2.13V0h-6.96c-14.98,0-20.77,7.77-20.77,21.85v7.28c3.38-1.18,6.96-1.87,10.63-1.87Z"/>
  <path id="path14" d="M125.22,80.79c-1.55-12.5-11.01-22.93-23.19-25.29-3.38-.69-6.76-.79-10.05-.2-.1,0-.1-.1-.19-.1-5.31-11.32-16.71-18.8-29.08-18.8s-23.67,7.28-29.08,18.6c-.1,0-.1.1-.19.1-3.48-.39-6.96-.2-10.44.69C11.01,58.74,1.93,68.98.29,81.38c-.19,1.28-.29,2.56-.29,3.74,0,3.74,2.51,7.18,6.18,7.68,4.54.69,8.5-2.85,8.41-7.38,0-.69,0-1.48.1-2.16.77-6.3,5.51-11.61,11.69-13.09,1.93-.49,3.86-.59,5.7-.29,5.89.79,11.69-2.26,14.2-7.58,1.84-3.94,4.73-7.38,8.6-9.25,4.25-2.07,9.08-2.36,13.53-.79,4.64,1.67,8.12,5.21,10.24,9.64,2.22,4.33,3.29,7.38,8.02,7.97,1.93.29,7.34.2,9.37.1,3.96,0,7.92,1.38,10.73,4.23,1.84,1.97,3.19,4.43,3.77,7.18.87,4.43-.19,8.86-2.8,12.2-1.84,2.36-4.35,4.13-7.15,4.92-1.35.39-2.71.49-4.06.49h-21.35c-4.25,0-7.63-3.44-7.63-7.77v-28.83c0-1.18-.97-2.16-2.12-2.16h-3c-5.89.1-10.63,6.79-10.63,13.88v25.88c0,7.68,6.09,13.88,13.62,13.88,0,0,33.53-.1,34.01-.1,7.73-.79,14.88-4.82,19.71-11.02,4.83-6,7.05-13.88,6.09-21.95h0Z"/>
  <rect id="rect2537" class="st0" x="-48" y="-71" width="256.31" height="255.07"/>
</svg>