<?xml version="1.0" encoding="UTF-8"?>
<svg id="Layer_1" xmlns="http://www.w3.org/2000/svg" version="1.1" xmlns:cc="http://creativecommons.org/ns#" xmlns:dc="http://purl.org/dc/elements/1.1/" xmlns:inkscape="http://www.inkscape.org/namespaces/inkscape" xmlns:rdf="http://www.w3.org/1999/02/22-rdf-syntax-ns#" xmlns:sodipodi="http://sodipodi.sourceforge.net/DTD/sodipodi-0.dtd" xmlns:svg="http://www.w3.org/2000/svg" viewBox="0 0 121.48 55.31">
  <!-- Generator: Adobe Illustrator 29.5.0, SVG Export Plug-In . SVG Version: 2.1.0 Build 137)  -->
  <defs>
    <style>
      .st0 {
        fill: #0082c9;
      }
    </style>
  </defs>
  <sodipodi:namedview id="namedview16" bordercolor="#666666" borderopacity="1" fit-margin-bottom="10" fit-margin-left="10" fit-margin-right="10" fit-margin-top="10" gridtolerance="10" guidetolerance="10" inkscape:bbox-nodes="true" inkscape:bbox-paths="true" inkscape:current-layer="Layer_1" inkscape:cx="41.308994" inkscape:cy="33.920203" inkscape:pageopacity="0" inkscape:pageshadow="2" inkscape:snap-bbox="true" inkscape:snap-bbox-edge-midpoints="true" inkscape:snap-bbox-midpoints="true" inkscape:snap-page="true" inkscape:window-height="1046" inkscape:window-maximized="1" inkscape:window-width="1920" inkscape:window-x="0" inkscape:window-y="34" inkscape:zoom="2.8284271" objecttolerance="10" pagecolor="#ffffff" showgrid="false" units="px"/>
  <path id="path1052" class="st0" d="M60.84,0c-12.59,0-23.27,8.54-26.57,20.1-2.87-6.13-9.1-10.43-16.28-10.43C8.11,9.67,0,17.78,0,27.65s8.11,17.98,17.98,17.98c7.18,0,13.41-4.3,16.28-10.44,3.31,11.57,13.98,20.11,26.57,20.11s23.12-8.41,26.51-19.85c2.93,6,9.08,10.18,16.16,10.18,9.87,0,17.98-8.12,17.98-17.98s-8.12-17.98-17.98-17.98c-7.07,0-13.23,4.18-16.16,10.17C83.95,8.41,73.33,0,60.84,0ZM60.84,10.56c9.51,0,17.1,7.59,17.1,17.1s-7.59,17.1-17.1,17.1-17.1-7.59-17.1-17.1,7.59-17.1,17.1-17.1ZM17.98,20.23c4.16,0,7.43,3.26,7.43,7.43s-3.26,7.43-7.43,7.43-7.43-3.26-7.43-7.43,3.26-7.43,7.43-7.43ZM103.5,20.23c4.16,0,7.43,3.26,7.43,7.43s-3.26,7.43-7.43,7.43-7.43-3.26-7.43-7.43,3.26-7.43,7.43-7.43Z" inkscape:connector-curvature="0" inkscape:export-filename="Nextcloud Hub logo variants.png" inkscape:export-xdpi="300" inkscape:export-ydpi="300"/>
</svg>